<mxfile host="app.diagrams.net" modified="2023-04-17T22:19:17.917Z" agent="Mozilla/5.0 (X11; Linux x86_64) AppleWebKit/537.36 (KHTML, like Gecko) Chrome/111.0.0.0 Safari/537.36" version="21.1.8" etag="5HiEOmab0iSKmWythW2C" type="github">
  <diagram name="PÃ¡gina-1" id="GwPQmuWJiRH2xapR3Nuv">
    <mxGraphModel>
      <root>
        <mxCell id="0" />
        <mxCell id="1" parent="0" />
      </root>
    </mxGraphModel>
  </diagram>
</mxfile>
